# xmcd
#
# Track frame offsets:
#	150
#	17655
#	33270
#	51400
#	66382
#	80882
#	93685
#	108552
#	122757
#	142537
#	161302
#	177017
#	191575
#	206657
#	223450
#	239407
#	254777
#	269690
#
# Disc length: 3810 seconds
#
# Revision: 3
# Processed by: cddbd v1.5.2PL0 Copyright (c) Steve Scherf et al.
# Submitted via: audiograbber 1.83.01
#
DISCID=160ee012
DTITLE=Various Artist - Heart Of The Country 93
DYEAR=1993
DGENRE=Country
TTITLE0=Collin Raye - Love, Me
TTITLE1=Doug Stone - In A Different Light
TTITLE2=Mary Chapin Carpenter - You Win Again
TTITLE3=Ricky Van Shelton - After The Lights Go Out
TTITLE4=Susy Bogguss - Heartache
TTITLE5=Jim Witter - Everything And More
TTITLE6=Rob Crosby - She's A Natural
TTITLE7=Mark Collie - Born To Love You
TTITLE8=Ronnie Mislap - Are You Lovin' Me Like I'm Lovin' You
TTITLE9=Tanya Tucker - Two Sparrows In A Hurricane
TTITLE10=Sammy Kershaw - Yard Sale
TTITLE11=Skip Ewing - Losing You Is New To Me
TTITLE12=Keith Whitley/Earl Thomas Conley - Brotherly Love
TTITLE13=Tracey Prescott - When You're Not Loving Me
TTITLE14=Baillie And The Boys - Treat Me Like A Stranger
TTITLE15=Paul Overstreet - Seein' My Father In Me
TTITLE16=Cassandra Vasik - What Face Should I Put On Tonight
TTITLE17=The Judds - Change Of Heart
EXTD=
EXTT0=
EXTT1=
EXTT2=
EXTT3=
EXTT4=
EXTT5=
EXTT6=
EXTT7=
EXTT8=
EXTT9=
EXTT10=
EXTT11=
EXTT12=
EXTT13=
EXTT14=
EXTT15=
EXTT16=
EXTT17=
PLAYORDER=
